<?xml version="1.0" standalone="no"?>
<!DOCTYPE svg PUBLIC "-//W3C//DTD SVG 20010904//EN"
 "http://www.w3.org/TR/2001/REC-SVG-20010904/DTD/svg10.dtd">
<svg version="1.0" xmlns="http://www.w3.org/2000/svg"
 width="700.000000pt" height="700.000000pt" viewBox="0 0 700.000000 700.000000"
 preserveAspectRatio="xMidYMid meet">
<metadata>
Created by potrace 1.11, written by Peter Selinger 2001-2013
</metadata>
<g transform="translate(0.000000,700.000000) scale(0.100000,-0.100000)"
fill="#000000" stroke="none">
<path d="M878 6125 c-11 -12 -9 -396 2 -484 24 -185 158 -336 331 -375 35 -8
138 -17 229 -20 1264 -46 2448 -701 3135 -1736 414 -625 645 -1335 671 -2070
3 -91 12 -194 20 -229 28 -124 119 -235 240 -293 82 -38 184 -49 424 -46 l195
3 -2 335 c-3 337 -11 494 -39 715 -171 1371 -940 2610 -2100 3387 -689 462
-1452 727 -2299 797 -159 14 -798 26 -807 16z"/>
<path d="M870 4168 c0 -111 5 -237 10 -277 14 -103 55 -188 127 -259 103 -102
165 -121 448 -141 164 -12 309 -39 455 -86 57 -19 105 -33 106 -32 2 3 -1127
991 -1138 995 -4 2 -8 -88 -8 -200z"/>
<path d="M2055 3342 c41 -39 1141 -998 1154 -1006 18 -11 17 -10 -75 129 -97
147 -163 229 -292 359 -129 130 -227 211 -387 318 -101 67 -330 189 -400 212
l-20 7 20 -19z"/>
<path d="M3296 2185 c112 -236 177 -480 195 -730 20 -283 39 -345 141 -448
114 -115 214 -140 548 -135 l195 3 3 216 2 216 -547 479 c-301 263 -557 487
-569 497 -18 14 -12 -6 32 -98z"/>
</g>
</svg>
